<svg viewBox="0 0 24 24" xmlns="http://www.w3.org/2000/svg"><path d="m13.457 14.738-.134-.25a1.5 1.5 0 0 0-2.648 0l-1.236 2.323a1.5 1.5 0 0 1-1.061.439H5.249a4.5 4.5 0 0 1-4.5-4.5v-3a1.5 1.5 0 0 1 1.5-1.5h19.5a1.5 1.5 0 0 1 1.5 1.5v3a4.5 4.5 0 0 1-.444 1.953" fill="none" stroke="#858585" stroke-linecap="round" stroke-linejoin="round" stroke-width="1.5px" class="stroke-000000"></path><path d="m.957 9 3.11-5.493A4.551 4.551 0 0 1 8.249.75h0M23.042 9l-3.111-5.493A4.551 4.551 0 0 0 15.749.75h0M14.249 18.362A1.5 1.5 0 1 1 15.7 20.25a1.5 1.5 0 1 1-1.445 1.9M20.2 23.25a2.751 2.751 0 0 0 3-2.4v-1.2a2.751 2.751 0 0 0-3-2.4Z" fill="none" stroke="#858585" stroke-linecap="round" stroke-linejoin="round" stroke-width="1.5px" class="stroke-000000"></path></svg>