<svg data-name="Layer 1" viewBox="0 0 48 48" xmlns="http://www.w3.org/2000/svg"><path d="M30.106 48v-2.745a2.213 2.213 0 0 1 2.213-2.212h6.11a2.392 2.392 0 0 0 2.326-2.466v.045-3.268a1.834 1.834 0 0 1 .459-1.145 2.912 2.912 0 0 0 .712-1.926l-.007-.667a1.016 1.016 0 0 1 .651-.952h1.067a1.363 1.363 0 0 0 1.051-.456 1.304 1.304 0 0 0 .19-1.395 67.032 67.032 0 0 1-3.037-7.51 4.767 4.767 0 0 1-.217-1.507l-.002-4.994a14.513 14.513 0 0 0-.552-3.963l-.006-.022a13.959 13.959 0 0 0-3.137-5.702q-.479-.516-1.006-1.003a17.67 17.67 0 0 0-.677-.623A18.303 18.303 0 0 0 24.194 1a19.617 19.617 0 0 0-12.539 4.489 17.555 17.555 0 0 0-3.945 21.69C9.945 31.507 11.694 38.622 12.14 46v2" stroke-miterlimit="10" fill="none" stroke="#cfb170" stroke-width="2px" class="stroke-353535"></path><path d="M27.917 12h3.5M27.917 26h3.5M29.667 12v14M23.992 26l-4.088-14h-.678l-4.067 14M16.854 21.133h5.422" stroke-linecap="round" stroke-linejoin="round" fill="none" stroke="#cfb170" stroke-width="2px" class="stroke-353535"></path></svg>