<svg fill="none" viewBox="0 0 24 24" xmlns="http://www.w3.org/2000/svg"><path clip-rule="evenodd" d="M7 6h10a4 4 0 0 1 4 4v4a4 4 0 0 1-4 4H7a4 4 0 0 1-4-4v-4a4 4 0 0 1 4-4Zm-6 4a6 6 0 0 1 6-6h10a6 6 0 0 1 6 6v4a6 6 0 0 1-6 6H7a6 6 0 0 1-6-6v-4Zm6 5a1 1 0 0 1-1-1v-1H5a1 1 0 1 1 0-2h1v-1a1 1 0 0 1 2 0v1h1a1 1 0 1 1 0 2H8v1a1 1 0 0 1-1 1Zm10-4a1 1 0 1 0 0-2 1 1 0 0 0 0 2Zm1 3a1 1 0 1 1-2 0 1 1 0 0 1 2 0Zm0-2a1 1 0 1 0 2 0 1 1 0 0 0-2 0Zm-3 1a1 1 0 1 1 0-2 1 1 0 0 1 0 2Z" fill="#858585" fill-rule="evenodd" class="fill-000000"></path></svg>