<svg viewBox="0 0 512 512" xml:space="preserve" xmlns="http://www.w3.org/2000/svg" enable-background="new 0 0 512 512"><path d="M337.672 164.916v41.686H381.159c.31 0 .593-.143.808-.356l.095-.071a1.29 1.29 0 0 0 .261-.783v-39.24c0-.355-.142-.664-.355-.877a1.235 1.235 0 0 0-.879-.357h-43.417zm-166.239 41.686v-41.686h-44.651v41.686H171.433zm54.431 134.452h-26.917v84.911h26.917v-84.911zm84.294 0h-26.942v84.911h26.942v-84.911zm2.99 90.751H278.373v23.524h56.899v-23.524h-22.124zM177.273 246.576c0 .166.07.309.165.403.12.095.262.166.428.166h153.372a.682.682 0 0 0 .427-.166.572.572 0 0 0 .167-.403v-81.66H177.273v81.66zm154.559 6.385-.594.024H177.866l-.593-.024v78.787a3.49 3.49 0 0 0 1.02 2.445 3.39 3.39 0 0 0 2.446 1.021H328.365c.95 0 1.827-.381 2.445-.998.617-.641 1.021-1.495 1.021-2.469v-78.786zm-40.594-41.019h-73.374a16.636 16.636 0 0 1-11.773-4.89c-3.039-3.039-4.915-7.217-4.915-11.799v-1.211c0-4.914 2.018-9.4 5.247-12.629a17.793 17.793 0 0 1 12.652-5.27h70.954c4.938 0 9.425 2.018 12.653 5.27a17.864 17.864 0 0 1 5.245 12.629v1.211a16.61 16.61 0 0 1-4.747 11.632l-.142.167c-3.04 3.014-7.218 4.89-11.8 4.89zm-73.374-5.816h73.374c2.968 0 5.698-1.234 7.669-3.204l.142-.143a10.825 10.825 0 0 0 3.038-7.525v-1.211c0-3.299-1.354-6.314-3.536-8.498-2.185-2.184-5.199-3.561-8.522-3.561h-70.954c-3.323 0-6.338 1.377-8.521 3.561a12.005 12.005 0 0 0-3.538 8.498v1.211c0 2.967 1.211 5.697 3.182 7.668 1.97 1.97 4.699 3.204 7.666 3.204zm12.108-47.049h49.161v-20.201h-49.161v20.201zm77.598-45.909V74.095a8.67 8.67 0 0 0-8.663-8.665h-88.709a8.62 8.62 0 0 0-6.102 2.541 8.591 8.591 0 0 0-2.563 6.124v39.073H307.57zm-80.59 19.868H298.907a8.672 8.672 0 0 0 6.124-2.54 8.615 8.615 0 0 0 2.539-6.1v-5.39H201.533v5.39c0 2.373.974 4.533 2.563 6.1a8.615 8.615 0 0 0 6.102 2.54h16.782zm6.528-50.586c-1.258-1.233-2.99-2.018-4.914-2.018s-3.655.784-4.913 2.018a6.907 6.907 0 0 0-2.018 4.915c0 1.922.76 3.654 2.018 4.889a6.919 6.919 0 0 0 4.913 2.042 6.87 6.87 0 0 0 4.891-2.042 6.826 6.826 0 0 0 2.041-4.889 7.008 7.008 0 0 0-2.018-4.915zm-4.914-7.856c3.513 0 6.694 1.424 9.021 3.75l.022.023a12.689 12.689 0 0 1 3.727 8.998 12.76 12.76 0 0 1-3.75 9.02 12.668 12.668 0 0 1-9.021 3.751c-3.513 0-6.694-1.425-9.021-3.751l-.023-.023a12.688 12.688 0 0 1-3.727-8.996c0-3.514 1.425-6.695 3.75-9.021l.024-.023a12.687 12.687 0 0 1 8.998-3.728zm56.83 7.856a7.014 7.014 0 0 0-4.914-2.018 6.851 6.851 0 0 0-4.772 1.899l-.117.143a6.907 6.907 0 0 0-.025 9.78 6.925 6.925 0 0 0 4.915 2.042 6.925 6.925 0 0 0 4.914-2.042c1.258-1.234 2.018-2.967 2.018-4.889a6.916 6.916 0 0 0-2.019-4.915zm-4.914-7.856a12.66 12.66 0 0 1 9.02 3.75l.024.023a12.685 12.685 0 0 1 3.728 8.998c0 3.512-1.425 6.717-3.752 9.02a12.66 12.66 0 0 1-9.02 3.751c-3.515 0-6.694-1.425-9.021-3.751l-.024-.023a12.683 12.683 0 0 1-3.726-8.996c0-3.514 1.447-6.719 3.75-9.021l.214-.213c2.302-2.186 5.411-3.538 8.807-3.538zM381.182 212.44H362.904v86.692h19.418V212.44h-1.14zm-234.982 0h-19.418v86.692H146.2V212.44zm194.912 219.365v23.524h7.146v-23.524h-7.146zm-164.576 0v23.524h56.901v-23.524h-56.901zm-5.84 23.524v-23.524h-7.121v23.524h7.121zm135.521-224.634c-.64-.617-1.518-1.021-2.491-1.021s-1.852.404-2.469 1.021c-.641.641-1.044 1.52-1.044 2.492s.403 1.852 1.044 2.492c.617.617 1.495 1.021 2.469 1.021s1.852-.404 2.491-1.021c.618-.641 1.021-1.52 1.021-2.492s-.379-1.851-1.021-2.492zm-2.491-6.836a9.34 9.34 0 0 1 6.6 2.729c1.71 1.709 2.753 4.035 2.753 6.599a9.339 9.339 0 0 1-2.73 6.623 9.386 9.386 0 0 1-6.622 2.73 9.34 9.34 0 0 1-6.6-2.73 9.368 9.368 0 0 1-2.753-6.623c0-2.563 1.068-4.89 2.753-6.599 1.708-1.685 4.035-2.729 6.599-2.729zm-30.291 6.86a3.516 3.516 0 0 0-2.491-1.045 3.6 3.6 0 0 0-2.493 1.021c-.616.641-1.02 1.52-1.02 2.492s.403 1.852 1.02 2.492a3.5 3.5 0 0 0 2.493 1.021c.972 0 1.852-.381 2.491-1.021.618-.641 1.021-1.52 1.021-2.492s-.403-1.851-1.021-2.468zm-2.492-6.86a9.34 9.34 0 0 1 6.6 2.729c1.709 1.709 2.753 4.035 2.753 6.599a9.257 9.257 0 0 1-2.753 6.6c-1.687 1.709-4.036 2.754-6.6 2.754s-4.913-1.045-6.6-2.73a9.351 9.351 0 0 1-2.753-6.623c0-2.563 1.044-4.89 2.753-6.599a9.336 9.336 0 0 1 6.6-2.73zm-30.29 6.836a3.599 3.599 0 0 0-2.492-1.021c-.974 0-1.851.404-2.493 1.021-.616.641-1.02 1.52-1.02 2.492s.403 1.852 1.02 2.492a3.603 3.603 0 0 0 2.493 1.021c.972 0 1.852-.404 2.469-1.021.64-.641 1.044-1.52 1.044-2.492s-.403-1.851-1.021-2.492zm-2.492-6.836c2.564 0 4.891 1.044 6.6 2.729 1.685 1.709 2.753 4.035 2.753 6.599a9.37 9.37 0 0 1-2.753 6.623 9.332 9.332 0 0 1-6.6 2.73 9.392 9.392 0 0 1-6.624-2.73 9.348 9.348 0 0 1-2.729-6.623c0-2.563 1.044-4.89 2.729-6.599a9.435 9.435 0 0 1 6.624-2.729zm-30.29 6.86a3.517 3.517 0 0 0-2.492-1.045c-.974 0-1.851.404-2.494 1.021-.64.641-1.019 1.52-1.019 2.492s.379 1.852 1.019 2.492a3.502 3.502 0 0 0 2.494 1.021c.972 0 1.852-.381 2.469-1.021.64-.641 1.044-1.52 1.044-2.492s-.404-1.851-1.021-2.468zm16.735 44.722c1.116 0 2.255-.736 2.635-1.638.974-1.946-.523-4.202-2.635-4.202h-5.84c-1.092 0-2.23.713-2.611 1.639-.972 1.946.523 4.201 2.611 4.201h5.84zm23.334 0c1.116 0 2.255-.736 2.636-1.638.949-1.946-.523-4.202-2.636-4.202h-5.84c-1.091 0-2.255.713-2.611 1.639-.972 1.946.498 4.201 2.611 4.201h5.84zm23.334 0c1.092 0 2.255-.736 2.611-1.638.974-1.946-.498-4.202-2.611-4.202h-5.839c-1.092 0-2.255.713-2.611 1.639-.973 1.946.498 4.201 2.611 4.201h5.839zm23.335 0c1.092 0 2.255-.736 2.611-1.638.974-1.946-.498-4.202-2.611-4.202h-5.84c-1.091 0-2.255.713-2.61 1.639-.973 1.946.498 4.201 2.61 4.201h5.84zm19.039 0c1.115 0 2.256-.736 2.635-1.638.974-1.946-.521-4.202-2.635-4.202h-1.544c-1.116 0-2.255.713-2.634 1.639-.949 1.946.521 4.201 2.634 4.201h1.544zm-118.192-5.839c-1.116 0-2.255.713-2.636 1.639-.972 1.946.523 4.201 2.636 4.201h5.815c1.116 0 2.257-.736 2.636-1.638.974-1.946-.523-4.202-2.636-4.202h-5.815zm29.15 23.476c1.116 0 2.255-.711 2.635-1.637.974-1.947-.523-4.202-2.635-4.202h-5.84c-1.092 0-2.23.712-2.611 1.638-.972 1.947.523 4.201 2.611 4.201h5.84zm23.334 0c1.116 0 2.255-.711 2.636-1.637.949-1.947-.523-4.202-2.636-4.202h-5.84c-1.091 0-2.255.712-2.611 1.638-.972 1.947.498 4.201 2.611 4.201h5.84zm23.334 0c1.092 0 2.255-.711 2.611-1.637.974-1.947-.498-4.202-2.611-4.202h-5.839c-1.092 0-2.255.712-2.611 1.638-.973 1.947.498 4.201 2.611 4.201h5.839zm23.335 0c1.092 0 2.255-.711 2.611-1.637.974-1.947-.498-4.202-2.611-4.202h-5.84c-1.091 0-2.255.712-2.61 1.638-.973 1.947.498 4.201 2.61 4.201h5.84zm19.039 0c1.115 0 2.256-.711 2.635-1.637.974-1.947-.521-4.202-2.635-4.202h-1.544c-1.116 0-2.255.712-2.634 1.638-.949 1.947.521 4.201 2.634 4.201h1.544zm-118.192-5.839c-1.116 0-2.255.712-2.636 1.638-.972 1.947.523 4.201 2.636 4.201h5.815c1.116 0 2.257-.711 2.636-1.637.974-1.947-.523-4.202-2.636-4.202h-5.815zm29.15 23.501c1.116 0 2.255-.736 2.635-1.662.974-1.946-.523-4.178-2.635-4.178h-5.84c-1.092 0-2.23.712-2.611 1.639-.972 1.945.523 4.201 2.611 4.201h5.84zm23.334 0c1.116 0 2.255-.736 2.636-1.662.949-1.946-.523-4.178-2.636-4.178h-5.84c-1.091 0-2.255.712-2.611 1.639-.972 1.945.498 4.201 2.611 4.201h5.84zm23.334 0c1.092 0 2.255-.736 2.611-1.662.974-1.946-.498-4.178-2.611-4.178h-5.839c-1.092 0-2.255.712-2.611 1.639-.973 1.945.498 4.201 2.611 4.201h5.839zm23.335 0c1.092 0 2.255-.736 2.611-1.662.974-1.946-.498-4.178-2.611-4.178h-5.84c-1.091 0-2.255.712-2.61 1.639-.973 1.945.498 4.201 2.61 4.201h5.84zm19.039 0c1.115 0 2.256-.736 2.635-1.662.974-1.946-.521-4.178-2.635-4.178h-1.544c-1.116 0-2.255.712-2.634 1.639-.949 1.945.521 4.201 2.634 4.201h1.544zm-118.192-5.84c-1.116 0-2.255.712-2.636 1.639-.972 1.945.523 4.201 2.636 4.201h5.815c1.116 0 2.257-.736 2.636-1.662.974-1.946-.523-4.178-2.636-4.178h-5.815zM322.17 85.773c0 1.592-1.281 2.873-2.848 2.92h5.743v29.293H313.41V88.693h5.77a2.918 2.918 0 0 1-2.85-2.92V47.697a2.935 2.935 0 0 1 2.85-2.92h-.049a9.232 9.232 0 0 1-6.527-2.753c-1.709-1.686-2.754-4.036-2.754-6.646a9.358 9.358 0 0 1 9.4-9.375 9.441 9.441 0 0 1 6.646 2.729c1.686 1.709 2.754 4.06 2.754 6.646 0 2.61-1.068 4.961-2.754 6.646s-3.988 2.729-6.527 2.753h-.047c1.566.048 2.848 1.354 2.848 2.92v38.076zm-129.397 0a2.913 2.913 0 0 1-2.824 2.92h5.744v29.293h-11.655V88.693h5.745a2.913 2.913 0 0 1-2.825-2.92V47.697a2.931 2.931 0 0 1 2.825-2.92h-.047a9.223 9.223 0 0 1-6.505-2.753c-1.709-1.686-2.753-4.036-2.753-6.646a9.362 9.362 0 0 1 9.4-9.375 9.346 9.346 0 0 1 6.623 2.729 9.367 9.367 0 0 1 2.753 6.646c0 2.61-1.044 4.961-2.753 6.646a9.226 9.226 0 0 1-6.503 2.753h-.048a2.932 2.932 0 0 1 2.824 2.92v38.076zm-69.148 388.665a2.918 2.918 0 0 1-2.92-2.92c0-1.59 1.306-2.92 2.92-2.92H313.34c1.614 0 2.92 1.33 2.92 2.92a2.918 2.918 0 0 1-2.92 2.92H123.625zm111.093 11.561a2.934 2.934 0 0 1-2.92-2.92 2.918 2.918 0 0 1 2.92-2.92h131.273a2.92 2.92 0 0 1 2.92 2.92c0 1.59-1.308 2.92-2.92 2.92H234.718zm144.708 0a2.934 2.934 0 0 1-2.92-2.92 2.918 2.918 0 0 1 2.92-2.92h16.428c1.59 0 2.92 1.306 2.92 2.92 0 1.59-1.33 2.92-2.92 2.92h-16.428zm-263.28-.356c-1.614 0-2.92-1.306-2.92-2.92s1.306-2.92 2.92-2.92h62.218c1.59 0 2.895 1.306 2.895 2.92s-1.305 2.92-2.895 2.92h-62.218zm89.233-261.784c2.564 0 4.889 1.044 6.598 2.729 1.686 1.709 2.73 4.035 2.73 6.599a9.332 9.332 0 0 1-2.73 6.6c-1.709 1.709-4.034 2.754-6.598 2.754a9.337 9.337 0 0 1-6.6-2.73 9.351 9.351 0 0 1-2.753-6.623c0-2.563 1.044-4.89 2.729-6.599a9.43 9.43 0 0 1 6.624-2.73z" fill-rule="evenodd" clip-rule="evenodd" fill="#4f97f5" class="fill-000000"></path></svg>